<svg xmlns="http://www.w3.org/2000/svg" viewBox="0 0 735 494" fill="white">
<rect width="100%" height="100%" fill="black"/>
<path d="M 502,192 503,192 505,194 506,194 507,195 508,195 510,197 505,202 504,202 501,205 500,205 497,208 496,208 492,212 491,212 486,217 485,217 482,220 481,220 477,224 476,224 472,228 471,228 467,232 466,232 463,235 462,235 458,239 457,239 454,242 453,242 451,240 451,239 444,232 444,231 437,224 437,223 431,217 431,216 423,208 423,207 415,199 415,198 410,193 409,193 405,197 404,197 401,200 400,200 396,204 395,204 391,208 390,208 386,212 385,212 381,216 380,216 376,220 375,220 372,223 371,223 367,227 366,227 362,231 361,231 359,233 352,226 352,225 344,217 344,216 338,210 338,209 330,201 330,200 329,199 328,200 327,200 322,205 321,205 317,209 316,209 313,212 312,212 308,216 307,216 303,220 302,220 298,224 297,224 294,227 293,227 290,230 289,230 284,235 283,235 279,239 278,239 275,242 274,242 271,245 270,245 265,250 264,250 261,253 260,253 256,257 255,257 251,261 250,261 246,265 245,265 241,269 240,269 236,273 235,273 231,277 230,277 227,280 226,280 222,284 221,284 217,288 216,288 212,292 211,292 208,295 207,295 203,299 202,299 200,301 201,300 202,300 204,298 205,298 206,297 207,297 208,296 209,296 210,295 211,295 213,293 214,293 215,292 216,292 217,291 218,291 219,290 220,290 222,288 223,288 224,287 225,287 226,286 227,286 229,284 230,284 231,283 232,283 233,282 234,282 236,280 237,280 238,279 239,279 241,277 242,277 243,276 244,276 245,275 246,275 247,274 248,274 249,273 250,273 252,271 253,271 254,270 255,270 257,268 258,268 259,267 260,267 261,266 262,266 264,264 265,264 266,263 267,263 268,262 269,262 270,261 271,261 273,259 274,259 275,258 276,258 278,256 279,256 280,255 281,255 282,254 283,254 284,253 285,253 287,251 288,251 289,250 290,250 291,249 292,249 294,247 295,247 296,246 297,246 298,245 299,245 300,244 301,244 303,242 304,242 305,241 306,241 307,240 308,240 310,238 311,238 312,237 313,237 314,236 315,236 317,234 318,234 319,233 320,233 321,232 322,232 324,230 325,230 326,229 328,229 329,228 333,228 335,230 336,230 338,232 339,232 344,237 345,237 349,241 348,242 347,242 342,247 341,247 337,251 336,251 333,254 332,254 328,258 327,258 323,262 322,262 319,265 318,265 314,269 313,269 309,273 308,273 305,276 304,276 299,281 298,281 295,284 294,284 290,288 289,288 286,291 287,291 288,290 289,290 290,289 291,289 292,288 293,288 294,287 295,287 297,285 298,285 299,284 300,284 301,283 302,283 304,281 305,281 306,280 307,280 308,279 309,279 310,278 311,278 313,276 314,276 315,275 316,275 318,273 319,273 320,272 321,272 322,271 323,271 325,269 326,269 327,268 328,268 329,267 330,267 331,266 332,266 334,264 335,264 336,263 337,263 339,261 340,261 341,260 342,260 343,259 344,259 345,258 346,258 348,256 349,256 350,255 351,255 352,254 353,254 354,253 355,253 357,251 358,251 359,250 360,250 362,248 363,248 364,247 365,247 366,246 367,246 369,244 370,244 371,243 372,243 373,242 374,242 375,241 376,241 378,239 379,239 380,238 381,238 382,237 383,237 385,235 386,235 387,234 388,234 390,232 391,232 392,231 393,231 394,230 395,230 396,229 397,229 399,227 400,227 401,226 402,226 404,224 405,224 406,223 407,223 408,222 409,222 410,221 413,221 414,222 415,222 416,223 417,223 421,227 422,227 426,231 427,231 432,236 433,236 437,240 438,240 442,244 443,244 446,247 446,248 444,250 443,250 438,255 437,255 433,259 432,259 429,262 428,262 425,265 424,265 419,270 418,270 414,274 413,274 410,277 409,277 405,281 404,281 405,281 406,280 407,280 408,279 409,279 411,277 412,277 413,276 414,276 416,274 417,274 418,273 419,273 420,272 421,272 422,271 423,271 425,269 426,269 427,268 428,268 430,266 431,266 432,265 433,265 434,264 435,264 436,263 437,263 439,261 440,261 441,260 442,260 443,259 444,259 446,257 447,257 448,256 449,256 450,255 451,255 453,253 454,253 455,252 456,252 457,251 458,251 460,249 461,249 462,248 463,248 464,247 465,247 466,246 467,246 469,244 470,244 471,243 472,243 473,242 474,242 476,240 477,240 478,239 479,239 481,237 483,237 485,235 486,235 487,234 488,234 490,232 491,232 492,231 493,231 494,230 495,230 497,228 498,228 499,227 500,227 501,226 502,226 503,225 504,225 506,223 507,223 508,222 509,222 510,221 511,221 513,219 514,219 515,218 516,218 517,217 518,217 519,216 520,216 521,217 521,227 521,225 522,224 522,223 523,222 523,220 524,219 524,218 525,217 525,215 526,214 526,213 527,212 527,210 528,209 528,208 529,207 529,205 530,204 530,203 531,202 531,200 532,199 532,198 533,197 533,195 534,194 524,194 523,193 506,193 505,192 Z" />
</svg>